<svg width="34" height="34" viewBox="0 0 34 34" fill="none" xmlns="http://www.w3.org/2000/svg">
<circle cx="17" cy="17" r="17" fill="white"/>
<path d="M20.75 8.875H13.25C12.0901 8.87624 10.978 9.33758 10.1578 10.1578C9.33758 10.978 8.87624 12.0901 8.875 13.25V20.75C8.87624 21.9099 9.33758 23.022 10.1578 23.8422C10.978 24.6624 12.0901 25.1238 13.25 25.125H20.75C21.9099 25.1238 23.022 24.6624 23.8422 23.8422C24.6624 23.022 25.1238 21.9099 25.125 20.75V13.25C25.1238 12.0901 24.6624 10.978 23.8422 10.1578C23.022 9.33758 21.9099 8.87624 20.75 8.875ZM17 20.75C16.2583 20.75 15.5333 20.5301 14.9166 20.118C14.2999 19.706 13.8193 19.1203 13.5355 18.4351C13.2516 17.7498 13.1774 16.9958 13.3221 16.2684C13.4668 15.541 13.8239 14.8728 14.3483 14.3483C14.8728 13.8239 15.541 13.4668 16.2684 13.3221C16.9958 13.1774 17.7498 13.2516 18.4351 13.5355C19.1203 13.8193 19.706 14.2999 20.118 14.9166C20.5301 15.5333 20.75 16.2583 20.75 17C20.749 17.9942 20.3535 18.9475 19.6505 19.6505C18.9475 20.3535 17.9942 20.749 17 20.75ZM21.6875 13.25C21.5021 13.25 21.3208 13.195 21.1667 13.092C21.0125 12.989 20.8923 12.8426 20.8214 12.6713C20.7504 12.5 20.7318 12.3115 20.768 12.1296C20.8042 11.9477 20.8935 11.7807 21.0246 11.6496C21.1557 11.5185 21.3227 11.4292 21.5046 11.393C21.6865 11.3568 21.875 11.3754 22.0463 11.4464C22.2176 11.5173 22.364 11.6375 22.467 11.7917C22.57 11.9458 22.625 12.1271 22.625 12.3125C22.625 12.5611 22.5262 12.7996 22.3504 12.9754C22.1746 13.1512 21.9361 13.25 21.6875 13.25ZM19.5 17C19.5 17.4945 19.3534 17.9778 19.0787 18.3889C18.804 18.8 18.4135 19.1205 17.9567 19.3097C17.4999 19.4989 16.9972 19.5484 16.5123 19.452C16.0273 19.3555 15.5819 19.1174 15.2322 18.7678C14.8826 18.4181 14.6445 17.9727 14.548 17.4877C14.4516 17.0028 14.5011 16.5001 14.6903 16.0433C14.8795 15.5865 15.2 15.196 15.6111 14.9213C16.0222 14.6466 16.5055 14.5 17 14.5C17.663 14.5 18.2989 14.7634 18.7678 15.2322C19.2366 15.7011 19.5 16.337 19.5 17Z" fill="#03051B"/>
</svg>
