<svg width="34" height="34" viewBox="0 0 34 34" fill="none" xmlns="http://www.w3.org/2000/svg">
<circle cx="17" cy="17" r="17" fill="white"/>
<path d="M25.7165 11.9997C25.0749 12.2913 24.3832 12.483 23.6665 12.5747C24.3999 12.133 24.9665 11.433 25.2332 10.5913C24.5415 11.008 23.7749 11.2997 22.9665 11.4663C22.3082 10.7497 21.3832 10.333 20.3332 10.333C18.3749 10.333 16.7749 11.933 16.7749 13.908C16.7749 14.1913 16.8082 14.4663 16.8665 14.7247C13.8999 14.5747 11.2582 13.1497 9.49987 10.9913C9.19154 11.5163 9.01654 12.133 9.01654 12.783C9.01654 14.0247 9.64154 15.1247 10.6082 15.7497C10.0165 15.7497 9.46654 15.583 8.9832 15.333V15.358C8.9832 17.0913 10.2165 18.5413 11.8499 18.8663C11.3255 19.0098 10.7749 19.0298 10.2415 18.9247C10.4679 19.6351 10.9112 20.2567 11.509 20.7021C12.1069 21.1476 12.8294 21.3944 13.5749 21.408C12.3112 22.4084 10.7449 22.9491 9.1332 22.9413C8.84987 22.9413 8.56654 22.9247 8.2832 22.8913C9.86654 23.908 11.7499 24.4997 13.7665 24.4997C20.3332 24.4997 23.9415 19.0497 23.9415 14.3247C23.9415 14.1663 23.9415 14.0163 23.9332 13.858C24.6332 13.358 25.2332 12.7247 25.7165 11.9997Z" fill="#03051B"/>
</svg>
