<svg width="32" height="33" viewBox="0 0 32 33" fill="none" xmlns="http://www.w3.org/2000/svg">
<rect y="0.640625" width="32" height="32" rx="8" fill="white" fill-opacity="0.05"/>
<g clip-path="url(#clip0_194_638)">
<path fill-rule="evenodd" clip-rule="evenodd" d="M6 10.1367V13.6328H10.4922H14.9844V14.6289V15.625H13.5H12.0156V16.6406V17.6562H13.5H14.9844V16.6406V15.625H16H17.0156V16.6406V17.6562H17.5039H17.9922V18.6523V19.6484H16.9961H16V21.1528V22.6572L14.5059 22.647L13.0117 22.6367L13.0015 21.1426L12.9912 19.6484H9.49562H6V23.1445V26.6406H9.4961H12.9922V25.6445V24.6484H14.4961H16V25.6445V26.6406H17.9922H19.9844V25.6445V24.6484H21H22.0156V25.6445V26.6406H23.5H24.9844V25.6445V24.6484H24.4961H24.0078V23.6523V22.6562H25.0039H26V21.6406V20.625H25.0042H24.0084L23.9983 18.1348L23.9883 15.6445L20.5026 15.6346L17.017 15.6246L17.0065 14.6385L16.9961 13.6523L15.9902 13.6419L14.9844 13.6315V12.1282V10.625H16H17.0156V8.63281V6.64062H16H14.9844V8.63281V10.625H13.9883H12.9922V8.63281V6.64062H9.4961H6V10.1367ZM19.0078 10.1367V13.6328H22.5039H26V10.1367V6.64062H22.5039H19.0078V10.1367ZM11 10.1367V11.6406H9.4961H7.99219V10.1367V8.63281H9.4961H11V10.1367ZM24.0078 10.1367V11.6406H22.5039H21V10.1367V8.63281H22.5039H24.0078V10.1367ZM6 16.6406V17.6562H7.99219H9.98438V16.6406V15.625H7.99219H6V16.6406ZM22.0156 19.1406V20.625H23.0117H24.0078V21.6406V22.6562H21H17.9922V23.6523V24.6484H16.9961H16V23.6523V22.6562H16.9961H17.9922V21.1523V19.6484H18.9883H19.9844V18.6523V17.6562H21H22.0156V19.1406ZM11 23.1445V24.6484H9.4961H7.99219V23.1445V21.6406H9.4961H11V23.1445Z" fill="white"/>
</g>
<defs>
<clipPath id="clip0_194_638">
<rect width="20" height="20" fill="white" transform="translate(6 6.64062)"/>
</clipPath>
</defs>
</svg>
