<svg width="32" height="33" viewBox="0 0 32 33" fill="none" xmlns="http://www.w3.org/2000/svg">
<rect y="0.640625" width="32" height="32" rx="8" fill="white" fill-opacity="0.05"/>
<path fill-rule="evenodd" clip-rule="evenodd" d="M13.2458 7.94652C12.9375 8.02953 12.6883 8.17625 12.4489 8.41555C12.2678 8.59671 12.033 8.94715 12.033 9.03643C12.033 9.04654 13.5629 9.0597 15.4328 9.06567C19.1189 9.07742 18.8807 9.06498 19.4422 9.27506C19.7259 9.38119 20.1482 9.66341 20.3994 9.91454C20.7649 10.28 20.9988 10.6907 21.1774 11.2804C21.233 11.464 21.2393 11.9845 21.2484 17.2692L21.2584 23.057H21.6173C22.0856 23.057 22.3118 23.0122 22.6294 22.8564C23.0848 22.6331 23.4578 22.1414 23.553 21.6391C23.6044 21.3686 23.6044 9.57869 23.553 9.30819C23.4578 8.80583 23.0848 8.31417 22.6294 8.09086C22.4862 8.02061 22.2806 7.94674 22.1726 7.92672C22.0485 7.90371 20.4048 7.89117 17.7065 7.8927C14.1524 7.89471 13.4047 7.90371 13.2458 7.94652ZM9.74024 10.2813C9.12399 10.447 8.64063 10.9372 8.47805 11.5614C8.39599 11.8764 8.39599 23.7375 8.47805 24.0526C8.64273 24.6847 9.12709 25.1707 9.75592 25.3344C9.94248 25.3831 10.5253 25.3903 14.257 25.3903C17.9887 25.3903 18.5715 25.3831 18.7581 25.3344C19.3869 25.1707 19.8713 24.6847 20.036 24.0526C20.118 23.7375 20.118 11.8764 20.036 11.5614C19.8713 10.9292 19.3869 10.4433 18.7581 10.2794C18.4449 10.1979 10.0441 10.1996 9.74024 10.2813Z" fill="white"/>
</svg>
