<svg width="172" height="172" viewBox="0 0 172 172" fill="none" xmlns="http://www.w3.org/2000/svg">
<path fill-rule="evenodd" clip-rule="evenodd" d="M148.759 126.258C156.308 114.55 160.689 100.608 160.689 85.6417C160.689 69.9911 155.898 55.4594 147.703 43.4332L155.312 35.8245C165.366 49.8601 171.283 67.0598 171.283 85.6417C171.283 103.542 165.792 120.159 156.402 133.901L148.759 126.258ZM142.334 134.817C142.33 134.821 142.326 134.826 142.322 134.83L127.914 120.422C133.638 113.473 137.682 105.088 139.424 95.8884L129.787 87.4075L129.756 87.3176C129.754 87.3751 129.751 87.4326 129.749 87.4901L101.926 60.0539L66.252 96.1686L43.4383 72.653C45.0671 67.3543 47.6664 62.4805 51.0288 58.2392L70.3164 77.9791L77.8819 70.5619L58.5544 50.7812C58.5868 50.756 58.6193 50.7308 58.6518 50.7056L49.4427 41.4964L49.4706 41.4845L36.8771 28.5957C49.9934 17.3729 67.026 10.5949 85.6417 10.5949C103.783 10.5949 120.421 17.0319 133.396 27.7467L118.947 42.196C109.721 35.1123 98.1729 30.9017 85.6417 30.9017C75.9706 30.9017 66.8852 33.4097 59.0005 37.8107L66.8664 45.6766C72.5639 42.9953 78.9278 41.4965 85.6417 41.4965C99.0694 41.4965 111.097 47.4916 119.193 56.9511L119.192 56.9473L126.697 49.4426L126.844 49.6012C126.794 49.5445 126.745 49.4879 126.695 49.4315L141.074 35.052C141.079 35.0565 141.083 35.0611 141.087 35.0656L148.585 27.5671C132.938 10.6162 110.53 0 85.6417 0C60.4171 0 37.7396 10.9053 22.0666 28.2585L31.9964 38.7296L31.9807 38.7445L43.576 50.6117C37.6993 57.6611 33.5612 66.2107 31.8203 75.6018L42.8687 87.2815L66.1837 111.314L102.025 75.0305L127.386 100.039C125.768 104.73 123.383 109.063 120.379 112.887L99.0995 91.6078L91.6079 99.0995L112.887 120.379C112.885 120.381 112.882 120.383 112.88 120.384L120.415 127.92C120.418 127.918 120.42 127.916 120.422 127.914L134.831 142.322C121.658 153.763 104.459 160.689 85.6417 160.689C66.4873 160.689 49.009 153.513 35.7484 141.702L50.1406 127.31C59.6985 135.461 72.0955 140.382 85.6417 140.382C95.197 140.382 104.18 137.934 111.999 133.63L104.116 125.747C98.4958 128.34 92.2377 129.787 85.6417 129.787C71.1057 129.787 58.2105 122.761 50.1667 111.92L42.8209 119.634L41.8487 118.49C42.1527 118.894 42.4621 119.295 42.7769 119.69L32.4878 129.98L32.6798 130.193L28.6263 133.841L28.3498 134.118C28.3454 134.112 28.341 134.107 28.3365 134.102L20.4581 141.192C36.1664 159.607 59.5405 171.283 85.6417 171.283C111.204 171.283 134.151 160.084 149.842 142.325L142.334 134.817ZM14.0687 132.689C5.17532 119.187 0 103.019 0 85.6417C0 67.4132 5.69501 50.5148 15.4029 36.6287L22.8671 44.4999C15.1082 56.3145 10.5949 70.451 10.5949 85.6417C10.5949 100.29 14.7913 113.957 22.0477 125.508L14.0687 132.689Z" fill="url(#paint0_radial_194_846)"/>
<defs>
<radialGradient id="paint0_radial_194_846" cx="0" cy="0" r="1" gradientTransform="matrix(115.5 -81.5 108.893 80.5644 55.5 98.5)" gradientUnits="userSpaceOnUse">
<stop stop-color="#00FFFF"/>
<stop offset="0.88" stop-color="#00429B"/>
</radialGradient>
</defs>
</svg>
