<svg width="52" height="52" viewBox="0 0 52 52" fill="none" xmlns="http://www.w3.org/2000/svg">
<path d="M52 26C52 11.6406 40.3594 0 26 0C11.6406 0 0 11.6406 0 26C0 40.3594 11.6406 52 26 52C40.3594 52 52 40.3594 52 26Z" fill="#5661FF"/>
<path d="M41 37L35.3574 20.758H26.9831L23.2124 31.6132H18.8434L26.0058 11H23.3124C22.3505 11.0007 21.4121 11.3086 20.6254 11.8817C19.8387 12.4548 19.2419 13.2651 18.9165 14.2022L11 37H24.0224C24.9849 37 25.9241 36.6926 26.7116 36.1194C27.4991 35.5462 28.0964 34.7355 28.4221 33.7976L31.1692 25.8879L35.0285 37H41Z" fill="white"/>
</svg>
