<svg width="770" height="770" viewBox="0 0 770 770" fill="none" xmlns="http://www.w3.org/2000/svg">
<path d="M547.846 214.052C561.613 199.6 584.71 198.916 597.212 214.474C631.368 256.979 652.157 309.013 656.42 363.93C661.62 430.924 641.86 497.474 600.942 550.775C560.024 604.075 500.839 640.36 434.776 652.646C380.623 662.717 324.984 656.079 275.097 634.066C256.836 626.008 251.53 603.518 261.934 586.485C272.338 569.451 294.518 564.428 313.144 571.6C347.446 584.809 384.965 588.392 421.561 581.586C470.084 572.561 513.555 545.911 543.609 506.761C573.663 467.612 588.177 418.731 584.358 369.524C581.477 332.413 568.322 297.094 546.698 267.369C534.957 251.229 534.079 228.504 547.846 214.052Z" fill="#DB4E11"/>
<path d="M341.366 617.029C337.677 636.644 318.671 649.785 299.716 643.533C251.423 627.603 208.308 598.372 175.522 558.873C142.736 519.374 121.946 471.613 115.181 421.212C112.527 401.431 128.943 385.169 148.902 385.156C168.861 385.142 184.721 401.442 188.322 421.074C194.469 454.587 209.122 486.184 231.138 512.709C253.155 539.234 281.513 559.455 313.322 571.669C331.955 578.823 345.055 597.413 341.366 617.029Z" fill="#514EFF"/>
<path d="M341.366 617.029C337.677 636.644 318.671 649.785 299.716 643.533C251.423 627.603 208.308 598.372 175.522 558.873C142.736 519.374 121.946 471.613 115.181 421.212C112.527 401.431 128.943 385.169 148.902 385.156C168.861 385.142 184.721 401.442 188.322 421.074C194.469 454.587 209.122 486.184 231.138 512.709C253.155 539.234 281.513 559.455 313.322 571.669C331.955 578.823 345.055 597.413 341.366 617.029Z" fill="#8B44FF"/>
<path d="M159.029 453.402C139.926 459.184 119.495 448.389 116.291 428.688C108.865 383.018 113.207 336.185 128.902 292.658C135.673 273.882 157.74 267.027 175.455 276.223C193.169 285.418 199.721 307.197 193.859 326.276C185.782 352.568 183.215 380.256 186.321 407.585C188.576 427.417 178.132 447.619 159.029 453.402Z" fill="#514EFF"/>
<path d="M159.029 453.402C139.926 459.184 119.495 448.389 116.291 428.688C108.865 383.018 113.207 336.185 128.902 292.658C135.673 273.882 157.74 267.027 175.455 276.223C193.169 285.418 199.721 307.197 193.859 326.276C185.782 352.568 183.215 380.256 186.321 407.585C188.576 427.417 178.132 447.619 159.029 453.402Z" fill="#23AA30"/>
<path d="M149.08 375.837C129.136 375.062 113.352 358.187 116.76 338.521C121.413 311.666 130.085 285.593 142.542 261.197C154.998 236.801 171.033 214.488 190.058 194.971C203.99 180.678 226.915 183.568 239.237 199.269C251.56 214.971 248.515 237.508 235.285 252.452C224.143 265.036 214.601 279.011 206.914 294.066C199.227 309.121 193.502 325.045 189.842 341.449C185.495 360.929 169.025 376.611 149.08 375.837Z" fill="#514EFF"/>
<path d="M149.08 375.837C129.136 375.062 113.352 358.187 116.76 338.521C121.413 311.666 130.085 285.593 142.542 261.197C154.998 236.801 171.033 214.488 190.058 194.971C203.99 180.678 226.915 183.568 239.237 199.269C251.56 214.971 248.515 237.508 235.285 252.452C224.143 265.036 214.601 279.011 206.914 294.066C199.227 309.121 193.502 325.045 189.842 341.449C185.495 360.929 169.025 376.611 149.08 375.837Z" fill="#C92222"/>
<path d="M172.321 282.489C154.341 273.823 146.599 252.052 157.569 235.378C171.895 213.603 189.308 193.945 209.314 177.043C238.548 152.346 272.66 134.09 309.425 123.466C346.191 112.842 384.783 110.089 422.684 115.386C448.621 119.011 473.836 126.351 497.569 137.128C515.742 145.381 520.805 167.926 510.22 184.847C499.634 201.767 477.402 206.554 458.854 199.182C444.045 193.297 428.546 189.187 412.679 186.969C384.841 183.078 356.495 185.1 329.491 192.904C302.487 200.707 277.431 214.116 255.959 232.256C243.72 242.595 232.803 254.339 223.416 267.216C211.659 283.345 190.3 291.155 172.321 282.489Z" fill="#514EFF"/>
<path d="M172.321 282.489C154.341 273.823 146.599 252.052 157.569 235.378C171.895 213.603 189.308 193.945 209.314 177.043C238.548 152.346 272.66 134.09 309.425 123.466C346.191 112.842 384.783 110.089 422.684 115.386C448.621 119.011 473.836 126.351 497.569 137.128C515.742 145.381 520.805 167.926 510.22 184.847C499.634 201.767 477.402 206.554 458.854 199.182C444.045 193.297 428.546 189.187 412.679 186.969C384.841 183.078 356.495 185.1 329.491 192.904C302.487 200.707 277.431 214.116 255.959 232.256C243.72 242.595 232.803 254.339 223.416 267.216C211.659 283.345 190.3 291.155 172.321 282.489Z" fill="#1ABBF1"/>
<path d="M397.88 149.256C398.969 129.326 416.092 113.81 435.702 117.528C472.745 124.549 508.061 139.216 539.335 160.739C570.61 182.262 596.924 210.009 616.715 242.099C627.192 259.087 618.816 280.623 600.591 288.759C582.365 296.895 561.244 288.463 549.964 271.997C536.142 251.819 518.675 234.262 498.359 220.281C478.043 206.299 455.405 196.257 431.621 190.554C412.212 185.901 396.792 169.185 397.88 149.256Z" fill="#514EFF"/>
<path d="M397.88 149.256C398.969 129.326 416.092 113.81 435.702 117.528C472.745 124.549 508.061 139.216 539.335 160.739C570.61 182.262 596.924 210.009 616.715 242.099C627.192 259.087 618.816 280.623 600.591 288.759C582.365 296.895 561.244 288.463 549.964 271.997C536.142 251.819 518.675 234.262 498.359 220.281C478.043 206.299 455.405 196.257 431.621 190.554C412.212 185.901 396.792 169.185 397.88 149.256Z" fill="#C127BB"/>
</svg>
