<svg width="229" height="229" viewBox="0 0 229 229" fill="none" xmlns="http://www.w3.org/2000/svg">
<path opacity="0.4" fill-rule="evenodd" clip-rule="evenodd" d="M198.885 168.802C208.978 153.15 214.835 134.509 214.835 114.5C214.835 93.5756 208.43 74.1473 197.473 58.0686L207.646 47.8961C221.088 66.6611 229 89.6566 229 114.5C229 138.431 221.658 160.648 209.104 179.021L198.885 168.802ZM190.296 180.245C190.291 180.251 190.285 180.257 190.28 180.264L171.017 161C178.67 151.71 184.076 140.499 186.406 128.199L173.521 116.861L173.479 116.741C173.476 116.817 173.473 116.894 173.47 116.971L136.272 80.2899L88.5766 128.574L58.0755 97.1345C60.2532 90.0503 63.7283 83.5343 68.2237 77.8638L94.0105 104.255L104.125 94.3388L78.2852 67.8927C78.3285 67.8589 78.372 67.8252 78.4155 67.7916L66.1031 55.4793L66.1405 55.4633L49.3034 38.2314C66.8394 23.2269 89.6114 14.1649 114.5 14.1649C138.755 14.1649 160.999 22.7711 178.346 37.0963L159.028 56.4145C146.693 46.9439 131.254 41.3144 114.5 41.3144C101.57 41.3144 89.4232 44.6675 78.8817 50.5516L89.3981 61.068C97.0154 57.4832 105.524 55.4794 114.5 55.4794C132.452 55.4794 148.533 63.4946 159.357 76.1416L159.356 76.1365L169.389 66.103L169.586 66.315C169.52 66.2392 169.453 66.1636 169.387 66.0882L188.612 46.8633C188.617 46.8694 188.623 46.8754 188.628 46.8815L198.654 36.8562C177.733 14.1934 147.774 0 114.5 0C80.7756 0 50.4565 14.5801 29.5023 37.7807L42.778 51.7802L42.7571 51.8L58.2596 67.6661C50.4026 77.0909 44.8701 88.5214 42.5427 101.077L57.314 116.692L88.4853 148.823L136.403 100.313L170.31 133.749C168.148 140.02 164.958 145.813 160.942 150.926L132.493 122.476L122.476 132.493L150.926 160.942C150.923 160.945 150.92 160.947 150.916 160.95L160.991 171.024C160.994 171.022 160.997 171.019 161.001 171.017L180.264 190.28C162.653 205.576 139.658 214.835 114.5 214.835C88.8912 214.835 65.5233 205.241 47.7943 189.451L67.0362 170.209C79.8148 181.107 96.3892 187.686 114.5 187.686C127.275 187.686 139.286 184.412 149.739 178.659L139.199 168.12C131.685 171.587 123.319 173.521 114.5 173.521C95.0658 173.521 77.8254 164.128 67.0712 149.634L57.25 159.946L55.9502 158.417C56.3566 158.958 56.7704 159.493 57.1912 160.022L43.435 173.778L43.6917 174.063L38.2724 178.941L37.9027 179.311C37.8968 179.304 37.8909 179.296 37.8849 179.29L27.3518 188.769C48.3532 213.389 79.6035 229 114.5 229C148.676 229 179.355 214.027 200.334 190.283L190.296 180.245ZM18.8093 177.401C6.91922 159.349 0 137.732 0 114.5C0 90.1291 7.61403 67.5365 20.5931 48.9713L30.5725 59.4948C20.1991 75.2905 14.1649 94.1906 14.1649 114.5C14.1649 134.084 19.7755 152.357 29.4769 167.8L18.8093 177.401Z" fill="url(#paint0_radial_196_1254)"/>
<defs>
<radialGradient id="paint0_radial_196_1254" cx="0" cy="0" r="1" gradientTransform="matrix(154.419 -108.963 145.586 107.712 74.2015 131.691)" gradientUnits="userSpaceOnUse">
<stop stop-color="#00FFFF"/>
<stop offset="0.88" stop-color="#00429B"/>
</radialGradient>
</defs>
</svg>
